<mxfile host="app.diagrams.net" modified="2024-03-31T10:58:15.718Z" agent="Mozilla/5.0 (Macintosh; Intel Mac OS X 10_15_7) AppleWebKit/537.36 (KHTML, like Gecko) Chrome/123.0.0.0 Safari/537.36" etag="FarMM4Z-9_5N_Qrh_lGm" version="24.2.1" type="github">
  <diagram name="Page-1" id="sxUrtnhPTb8_dB1eyZ8Q">
    <mxGraphModel dx="788" dy="752" grid="1" gridSize="10" guides="1" tooltips="1" connect="1" arrows="1" fold="1" page="1" pageScale="1" pageWidth="850" pageHeight="1100" math="0" shadow="0">
      <root>
        <mxCell id="0" />
        <mxCell id="1" parent="0" />
        <mxCell id="uamGU-mDwD8jKpPWmUpr-10" value="&lt;font color=&quot;#021369&quot;&gt;AWS Cloud (OSP)&lt;/font&gt;" style="sketch=0;outlineConnect=0;gradientColor=none;html=1;whiteSpace=wrap;fontSize=12;fontStyle=0;shape=mxgraph.aws4.group;grIcon=mxgraph.aws4.group_aws_cloud;strokeColor=#021369;fillColor=none;verticalAlign=top;align=left;spacingLeft=30;fontColor=#AAB7B8;dashed=0;" vertex="1" parent="1">
          <mxGeometry x="80" y="200" width="440" height="170" as="geometry" />
        </mxCell>
        <mxCell id="uamGU-mDwD8jKpPWmUpr-1" value="Service" style="sketch=0;points=[[0,0,0],[0.25,0,0],[0.5,0,0],[0.75,0,0],[1,0,0],[0,1,0],[0.25,1,0],[0.5,1,0],[0.75,1,0],[1,1,0],[0,0.25,0],[0,0.5,0],[0,0.75,0],[1,0.25,0],[1,0.5,0],[1,0.75,0]];outlineConnect=0;fontColor=#232F3E;fillColor=#ED7100;strokeColor=#ffffff;dashed=0;verticalLabelPosition=bottom;verticalAlign=top;align=center;html=1;fontSize=12;fontStyle=0;aspect=fixed;shape=mxgraph.aws4.resourceIcon;resIcon=mxgraph.aws4.ecs;" vertex="1" parent="1">
          <mxGeometry x="120" y="240" width="78" height="78" as="geometry" />
        </mxCell>
        <mxCell id="uamGU-mDwD8jKpPWmUpr-2" value="Service" style="sketch=0;points=[[0,0,0],[0.25,0,0],[0.5,0,0],[0.75,0,0],[1,0,0],[0,1,0],[0.25,1,0],[0.5,1,0],[0.75,1,0],[1,1,0],[0,0.25,0],[0,0.5,0],[0,0.75,0],[1,0.25,0],[1,0.5,0],[1,0.75,0]];outlineConnect=0;fontColor=#232F3E;fillColor=#ED7100;strokeColor=#ffffff;dashed=0;verticalLabelPosition=bottom;verticalAlign=top;align=center;html=1;fontSize=12;fontStyle=0;aspect=fixed;shape=mxgraph.aws4.resourceIcon;resIcon=mxgraph.aws4.ecs;" vertex="1" parent="1">
          <mxGeometry x="280" y="240" width="78" height="78" as="geometry" />
        </mxCell>
        <mxCell id="uamGU-mDwD8jKpPWmUpr-3" value="Service" style="sketch=0;points=[[0,0,0],[0.25,0,0],[0.5,0,0],[0.75,0,0],[1,0,0],[0,1,0],[0.25,1,0],[0.5,1,0],[0.75,1,0],[1,1,0],[0,0.25,0],[0,0.5,0],[0,0.75,0],[1,0.25,0],[1,0.5,0],[1,0.75,0]];outlineConnect=0;fontColor=#232F3E;fillColor=#ED7100;strokeColor=#ffffff;dashed=0;verticalLabelPosition=bottom;verticalAlign=top;align=center;html=1;fontSize=12;fontStyle=0;aspect=fixed;shape=mxgraph.aws4.resourceIcon;resIcon=mxgraph.aws4.ecs;" vertex="1" parent="1">
          <mxGeometry x="400" y="240" width="78" height="78" as="geometry" />
        </mxCell>
        <mxCell id="uamGU-mDwD8jKpPWmUpr-4" style="edgeStyle=orthogonalEdgeStyle;rounded=0;orthogonalLoop=1;jettySize=auto;html=1;entryX=0;entryY=0.5;entryDx=0;entryDy=0;entryPerimeter=0;dashed=1;strokeWidth=2;endArrow=none;endFill=0;" edge="1" parent="1" source="uamGU-mDwD8jKpPWmUpr-1" target="uamGU-mDwD8jKpPWmUpr-2">
          <mxGeometry relative="1" as="geometry" />
        </mxCell>
        <mxCell id="uamGU-mDwD8jKpPWmUpr-11" value="&lt;font color=&quot;#021369&quot;&gt;AWS Cloud (Sentry Self-hosted)&lt;/font&gt;" style="sketch=0;outlineConnect=0;gradientColor=none;html=1;whiteSpace=wrap;fontSize=12;fontStyle=0;shape=mxgraph.aws4.group;grIcon=mxgraph.aws4.group_aws_cloud;strokeColor=#021369;fillColor=none;verticalAlign=top;align=left;spacingLeft=30;fontColor=#AAB7B8;dashed=0;" vertex="1" parent="1">
          <mxGeometry x="560" y="200" width="210" height="170" as="geometry" />
        </mxCell>
        <mxCell id="uamGU-mDwD8jKpPWmUpr-12" value="sentry.paynet" style="sketch=0;points=[[0,0,0],[0.25,0,0],[0.5,0,0],[0.75,0,0],[1,0,0],[0,1,0],[0.25,1,0],[0.5,1,0],[0.75,1,0],[1,1,0],[0,0.25,0],[0,0.5,0],[0,0.75,0],[1,0.25,0],[1,0.5,0],[1,0.75,0]];outlineConnect=0;fontColor=#232F3E;fillColor=#ED7100;strokeColor=#ffffff;dashed=0;verticalLabelPosition=bottom;verticalAlign=top;align=center;html=1;fontSize=12;fontStyle=0;aspect=fixed;shape=mxgraph.aws4.resourceIcon;resIcon=mxgraph.aws4.ecs;" vertex="1" parent="1">
          <mxGeometry x="626" y="240" width="78" height="78" as="geometry" />
        </mxCell>
        <mxCell id="uamGU-mDwD8jKpPWmUpr-14" value="Sentry agent" style="shape=image;verticalLabelPosition=bottom;labelBackgroundColor=default;verticalAlign=top;aspect=fixed;imageAspect=0;image=data:image/png,iVBORw0KGgoAAAANSUhEUgAAAOEAAADhCAMAAAAJbSJIAAAAflBMVEVeRXb///9XO3BRMmyonrPi3uVaQHNcQnRVOW9NLWlZPnLc2OBMK2hTNm5UN25OL2q0q7339vhjS3rUz9mil67n5Orw7vLCu8rGwM15Z4xlTnyDc5RtWIJxXYXs6u7OydSViKOupLiKe5qckKm7s8SOgJ13ZIpvWoSFdZVHI2SEIZPZAAAKFElEQVR4nO1daXfiSAzENvGFzRUIkINw5Zj//wc3w2beukrqhkwMtrOq+TBvgpO03OqSVK3u6fUMBoPBYDAYDAaDwWAwGAwGg8FgMBj+l0jyME3DvOlhXApJmt1vtodDfxdHYdODuQSGyfgu+MR89vNsjEfjoIrJvmh6SPUif7wLCIM0bnpUNSJcsX0fuOslTY+rNsRvioEfJg6bHlhtKCeqhcFt1vTIakK00A0Mgs3PYNT4yWVgMCmbHlwtKG6cFgbjn2Bi/uI2MAimP4BPRw6a+SSbUdPj+zaGWzRpMMd/P3Q9D096aNBb9msGX1h3PXuLnsGe/lAwz6zbESN+BWvufod4jh5p04P8FgpcdbvjoouW8MVFlyNGuEeW+czSQpzExw5HDEpI/5gS9lXDO4jy4HDHDKvFXVcjRjJ1UUr+Lgmoixjdgh2zCmlmA/io300+zR9woqqhPXnE6c07STbFGozA9IyW6DJqapTfQIjZGdfzQ5zEpw7KUimacE9+SKHypntkQ9LFQSQu5MQvXYsYTCUyM4uRiCZdKxQpHOyVAoKCybZbESPfwejnWhHICUG3BOIRpmUrlSmHuJXx3KWIkWJq/exYYxEm5vp7aCWSGP3PJaiFm9O+3E5QiTt27k9QgazxUStBMoUnDiQocky6shJJatp4YjnNtswLWon8C6srSXDFcm7XThBDvnoHTYJxJyTwFKPcqboow/fRAQmcRe5Z4Xc82rjpgAQ+QpE7CAY9fwwoMINtvQQeKz0JG2/tx5v8bU/As7m08CPj9OVjJVaSi3YHRcd26OTJ13bRLQk8fRetQUfsPZ6aoqLTdgk8LvqqicvMPTVdk8DTVO0umSfOxUiCxl37w375prVfTJ6cNEmCRgck8DjbKCYGLy6aTO7xwS5I4GHIkf83Zi7/66QEPtopbSYHV1JW4nPdkMDz9FaauHSYyBJ4+9PTI4q9NPHZMXZKhnxlc5uQytbg4FY3kRLazkjgsSg1nCbSk+PWRYyhg+CVFEc3se0SeP48dSTX5YMwUV+LLIG3y0+HH/Fs7DhDEd6LsLFQTWyzBP5vTjLZZOqg4lAUjWNtgr4i0l0b2Wfkm7+qyUgyGrCJe00ZJaG1RRJ4petimarDKgSlPijPcU9fe3I3qO82aiFYiIrqUfFolsDbciCDuy5yLR8RJk5S+SZ406otEjh1XXwU6RqPCBMHCpPQxmNLjpwoB0YWI+XlF0t66qCsMxI0WiGBc9fFEet7hUgE3ezkQ9QAcNeGiJGJSHDEuxIOCn5U2RxmCbz59JRe+n/YKmsowi6hYC6fYZdo3sJM10cDtdhNYkrglKXIEnjTm6ahro4ecRMJJ8z5JKKSfBI1Ny2B524DP/hGamYpObWydd8uCTziCEDj74kpirBG0mS1okUSuOP4a8XEezE8JtQH8RK4ubjJQpH786RkMblnA5IU2Ubx06w1ErjYoVbENemodFJIaTFhCTxujGxGoihXxLW7kMdXbvEJyZZtkcBTHOlRWIlLkeKsxfio0lXkXzps89qMoMGlzqc4VuD7D5QigmU1Kf+2owvc1Z83wngW/C416Fsp5ClkU7RAAo+dXXel2MyfMZmQn8oO6DZI4J7+vFRIpCuag9MbhnT41N3BeTFQpEDpT5rIhE/9bAthAPdWXf9Yu78/T5go+JJqEqnhpw1L4Kf681I8fydvT6C6cimLpGYlcPahRAZt3snnpUgZn/TCZiVw4oHFL+WRLVrIIYGKebkSG5XARX/eUhHXWFvjhjWKpzL5ZAn8mtW+7M9bT2VMpqjNfkqermyJNtcFniv788FKjJBVGS70KL+WiU1zEji1hnziRbzinJyZwjYZoPTONiaBxyutizTYi1ngOokIEydxrYy/MQk8zjbarTOzU3UShW1aiVLPaFICD1lR0k3kOonCNlKJdngta1ACH04VOX/PUY3qJEreKCYqPsgS+FW3hZNCaUAUmy3kpyQN4va31qcfNSqBh4nsI33iOgkngc5TxLDOlG0MIYG/XTk9LcRqnHCpR1GPzmzjkRlNwQ8blsAjUc+LOimCjymBxhpFbfWiY+1Xl8BTUj/lfhKpShgTkGzVS05IAp9cXZXKRcsTx2UM2wN8ARFwjdo52/ix9rhHJk5oCCR44GLDHFd1UxZ1ZDF6acRTMpEVhwxWElWCcAXIXNUqrieBJ8NSXeYxNytQ/kXVOrkp+KAuOH3p0OY38OEtg/dCszEk4YnrJNwRRHkXzdcP513rWPtxxd9tCoUNStK5iQ1wL5y4BmqxWz1nuY4E/ufsznqlZci0dUiaBFaUKB0im+qiIUvgl1mJ/0XeZSmnMcJKjugEGyz64Io4wSt9jV1DAq8G7slKOBPLRkgZ+CkyJgaDrV49XEMCR0fri4GUmKJSEYDaFbopXIRy63DAyx9rH2JMepZuQufOkQzQFZExh9U62JmUZReWwM84XUYX6SGdopchm2K8cHUIXfpY+zknBFFxoC2/EZSSYCFm33tXJLisBH5WiwuRDVaC6Kbv4GPggAtXYn1ZCfy8Gg0nGjkD3fwAZpTVUHDjjHWXlMDPrLNp45uq+Spjohnhtvpt7gVGTXR1SuAkcjvbBTNYKsiYeP4ZLIyBo9wDJwl8UF/EcN60ykC+8zEmpi4wOS/uOEA9fe91RQyOFJ4aG7ukMGbCLgVmDEA1jqzm+CPoZte6IgbftOqhacwLkE0hdVmC9dBItfTknKOLSOB0H4A31CLXLNyMOQcPHlbX6MBTOFymCxyrG23/pAJgzDVQAUZE/KjK1d5+UqIEmR7/BSirP5HyImOCl6IvAGPiFpO3+MObXWvprqVYeKJsiYFNMTNInB+h83l/BamvdcREyPxPJxKwzYDZNxAt+hfo4v6yAdMrZxb7BUTVKH5aPhhVC0GsseAnYd4G4cITEHvs7IcauAZI/nTLNUw5MWaVTMn46sScuAwrOze0nAuw8LTIhcsWiCCt8iDGBOBrT8g/Plt9UXVYGFXdbvArDf0oQRUDHoBwsf5V/S441kaex78AuL2OY6YlZDTzbf8Uqo9DgzZkppNZ9Xtm1SVK80K/cQyJYR0BMdVaEs7FDizkfkUHnoGvxQlVgD//OA/aHXNnA8icD1q4gLp35H22Fmm4cJ6/Ow1wIvW0qQIkocL3qNKW+hfwHcA7BQj5XIWdZ+HI92hNdxH5/9ctL2DHk9uHXLg528K6LsiO5e0kF7Xw/Dms7UCU2uHVAgtrbOSTdz60wcJNnRtQ2bYxCzPXY7t6JeFy9Vcx43IWDqZ1N/HFxV5tm72AhcilakPy4EG7l+K7yEePs+Xg5iuYz4ALpjeDc4ACVjKnH3q72Pe8l9p+A0k4jL4GIruyjI5//H9RDSp+6LALF0caDAaDwWAwGAwGg8FgMBgMBoPBYDAYDAaDwWAwGAwGg8FgMBgMBoPB8FPxD0imjHsfcdg4AAAAAElFTkSuQmCC;fontSize=8;" vertex="1" parent="1">
          <mxGeometry x="180" y="300" width="35" height="35" as="geometry" />
        </mxCell>
        <mxCell id="uamGU-mDwD8jKpPWmUpr-15" value="Sentry agent" style="shape=image;verticalLabelPosition=bottom;labelBackgroundColor=default;verticalAlign=top;aspect=fixed;imageAspect=0;image=data:image/png,iVBORw0KGgoAAAANSUhEUgAAAOEAAADhCAMAAAAJbSJIAAAAflBMVEVeRXb///9XO3BRMmyonrPi3uVaQHNcQnRVOW9NLWlZPnLc2OBMK2hTNm5UN25OL2q0q7339vhjS3rUz9mil67n5Orw7vLCu8rGwM15Z4xlTnyDc5RtWIJxXYXs6u7OydSViKOupLiKe5qckKm7s8SOgJ13ZIpvWoSFdZVHI2SEIZPZAAAKFElEQVR4nO1daXfiSAzENvGFzRUIkINw5Zj//wc3w2beukrqhkwMtrOq+TBvgpO03OqSVK3u6fUMBoPBYDAYDAaDwWAwGAwGg8FgMBj+l0jyME3DvOlhXApJmt1vtodDfxdHYdODuQSGyfgu+MR89vNsjEfjoIrJvmh6SPUif7wLCIM0bnpUNSJcsX0fuOslTY+rNsRvioEfJg6bHlhtKCeqhcFt1vTIakK00A0Mgs3PYNT4yWVgMCmbHlwtKG6cFgbjn2Bi/uI2MAimP4BPRw6a+SSbUdPj+zaGWzRpMMd/P3Q9D096aNBb9msGX1h3PXuLnsGe/lAwz6zbESN+BWvufod4jh5p04P8FgpcdbvjoouW8MVFlyNGuEeW+czSQpzExw5HDEpI/5gS9lXDO4jy4HDHDKvFXVcjRjJ1UUr+Lgmoixjdgh2zCmlmA/io300+zR9woqqhPXnE6c07STbFGozA9IyW6DJqapTfQIjZGdfzQ5zEpw7KUimacE9+SKHypntkQ9LFQSQu5MQvXYsYTCUyM4uRiCZdKxQpHOyVAoKCybZbESPfwejnWhHICUG3BOIRpmUrlSmHuJXx3KWIkWJq/exYYxEm5vp7aCWSGP3PJaiFm9O+3E5QiTt27k9QgazxUStBMoUnDiQocky6shJJatp4YjnNtswLWon8C6srSXDFcm7XThBDvnoHTYJxJyTwFKPcqboow/fRAQmcRe5Z4Xc82rjpgAQ+QpE7CAY9fwwoMINtvQQeKz0JG2/tx5v8bU/As7m08CPj9OVjJVaSi3YHRcd26OTJ13bRLQk8fRetQUfsPZ6aoqLTdgk8LvqqicvMPTVdk8DTVO0umSfOxUiCxl37w375prVfTJ6cNEmCRgck8DjbKCYGLy6aTO7xwS5I4GHIkf83Zi7/66QEPtopbSYHV1JW4nPdkMDz9FaauHSYyBJ4+9PTI4q9NPHZMXZKhnxlc5uQytbg4FY3kRLazkjgsSg1nCbSk+PWRYyhg+CVFEc3se0SeP48dSTX5YMwUV+LLIG3y0+HH/Fs7DhDEd6LsLFQTWyzBP5vTjLZZOqg4lAUjWNtgr4i0l0b2Wfkm7+qyUgyGrCJe00ZJaG1RRJ4petimarDKgSlPijPcU9fe3I3qO82aiFYiIrqUfFolsDbciCDuy5yLR8RJk5S+SZ406otEjh1XXwU6RqPCBMHCpPQxmNLjpwoB0YWI+XlF0t66qCsMxI0WiGBc9fFEet7hUgE3ezkQ9QAcNeGiJGJSHDEuxIOCn5U2RxmCbz59JRe+n/YKmsowi6hYC6fYZdo3sJM10cDtdhNYkrglKXIEnjTm6ahro4ecRMJJ8z5JKKSfBI1Ny2B524DP/hGamYpObWydd8uCTziCEDj74kpirBG0mS1okUSuOP4a8XEezE8JtQH8RK4ubjJQpH786RkMblnA5IU2Ubx06w1ErjYoVbENemodFJIaTFhCTxujGxGoihXxLW7kMdXbvEJyZZtkcBTHOlRWIlLkeKsxfio0lXkXzps89qMoMGlzqc4VuD7D5QigmU1Kf+2owvc1Z83wngW/C416Fsp5ClkU7RAAo+dXXel2MyfMZmQn8oO6DZI4J7+vFRIpCuag9MbhnT41N3BeTFQpEDpT5rIhE/9bAthAPdWXf9Yu78/T5go+JJqEqnhpw1L4Kf681I8fydvT6C6cimLpGYlcPahRAZt3snnpUgZn/TCZiVw4oHFL+WRLVrIIYGKebkSG5XARX/eUhHXWFvjhjWKpzL5ZAn8mtW+7M9bT2VMpqjNfkqermyJNtcFniv788FKjJBVGS70KL+WiU1zEji1hnziRbzinJyZwjYZoPTONiaBxyutizTYi1ngOokIEydxrYy/MQk8zjbarTOzU3UShW1aiVLPaFICD1lR0k3kOonCNlKJdngta1ACH04VOX/PUY3qJEreKCYqPsgS+FW3hZNCaUAUmy3kpyQN4va31qcfNSqBh4nsI33iOgkngc5TxLDOlG0MIYG/XTk9LcRqnHCpR1GPzmzjkRlNwQ8blsAjUc+LOimCjymBxhpFbfWiY+1Xl8BTUj/lfhKpShgTkGzVS05IAp9cXZXKRcsTx2UM2wN8ARFwjdo52/ix9rhHJk5oCCR44GLDHFd1UxZ1ZDF6acRTMpEVhwxWElWCcAXIXNUqrieBJ8NSXeYxNytQ/kXVOrkp+KAuOH3p0OY38OEtg/dCszEk4YnrJNwRRHkXzdcP513rWPtxxd9tCoUNStK5iQ1wL5y4BmqxWz1nuY4E/ufsznqlZci0dUiaBFaUKB0im+qiIUvgl1mJ/0XeZSmnMcJKjugEGyz64Io4wSt9jV1DAq8G7slKOBPLRkgZ+CkyJgaDrV49XEMCR0fri4GUmKJSEYDaFbopXIRy63DAyx9rH2JMepZuQufOkQzQFZExh9U62JmUZReWwM84XUYX6SGdopchm2K8cHUIXfpY+zknBFFxoC2/EZSSYCFm33tXJLisBH5WiwuRDVaC6Kbv4GPggAtXYn1ZCfy8Gg0nGjkD3fwAZpTVUHDjjHWXlMDPrLNp45uq+Spjohnhtvpt7gVGTXR1SuAkcjvbBTNYKsiYeP4ZLIyBo9wDJwl8UF/EcN60ykC+8zEmpi4wOS/uOEA9fe91RQyOFJ4aG7ukMGbCLgVmDEA1jqzm+CPoZte6IgbftOqhacwLkE0hdVmC9dBItfTknKOLSOB0H4A31CLXLNyMOQcPHlbX6MBTOFymCxyrG23/pAJgzDVQAUZE/KjK1d5+UqIEmR7/BSirP5HyImOCl6IvAGPiFpO3+MObXWvprqVYeKJsiYFNMTNInB+h83l/BamvdcREyPxPJxKwzYDZNxAt+hfo4v6yAdMrZxb7BUTVKH5aPhhVC0GsseAnYd4G4cITEHvs7IcauAZI/nTLNUw5MWaVTMn46sScuAwrOze0nAuw8LTIhcsWiCCt8iDGBOBrT8g/Plt9UXVYGFXdbvArDf0oQRUDHoBwsf5V/S441kaex78AuL2OY6YlZDTzbf8Uqo9DgzZkppNZ9Xtm1SVK80K/cQyJYR0BMdVaEs7FDizkfkUHnoGvxQlVgD//OA/aHXNnA8icD1q4gLp35H22Fmm4cJ6/Ow1wIvW0qQIkocL3qNKW+hfwHcA7BQj5XIWdZ+HI92hNdxH5/9ctL2DHk9uHXLg528K6LsiO5e0kF7Xw/Dms7UCU2uHVAgtrbOSTdz60wcJNnRtQ2bYxCzPXY7t6JeFy9Vcx43IWDqZ1N/HFxV5tm72AhcilakPy4EG7l+K7yEePs+Xg5iuYz4ALpjeDc4ACVjKnH3q72Pe8l9p+A0k4jL4GIruyjI5//H9RDSp+6LALF0caDAaDwWAwGAwGg8FgMBgMBoPBYDAYDAaDwWAwGAwGg8FgMBgMBoPB8FPxD0imjHsfcdg4AAAAAElFTkSuQmCC;fontSize=8;" vertex="1" parent="1">
          <mxGeometry x="340" y="300" width="35" height="35" as="geometry" />
        </mxCell>
        <mxCell id="uamGU-mDwD8jKpPWmUpr-16" value="Sentry agent" style="shape=image;verticalLabelPosition=bottom;labelBackgroundColor=default;verticalAlign=top;aspect=fixed;imageAspect=0;image=data:image/png,iVBORw0KGgoAAAANSUhEUgAAAOEAAADhCAMAAAAJbSJIAAAAflBMVEVeRXb///9XO3BRMmyonrPi3uVaQHNcQnRVOW9NLWlZPnLc2OBMK2hTNm5UN25OL2q0q7339vhjS3rUz9mil67n5Orw7vLCu8rGwM15Z4xlTnyDc5RtWIJxXYXs6u7OydSViKOupLiKe5qckKm7s8SOgJ13ZIpvWoSFdZVHI2SEIZPZAAAKFElEQVR4nO1daXfiSAzENvGFzRUIkINw5Zj//wc3w2beukrqhkwMtrOq+TBvgpO03OqSVK3u6fUMBoPBYDAYDAaDwWAwGAwGg8FgMBj+l0jyME3DvOlhXApJmt1vtodDfxdHYdODuQSGyfgu+MR89vNsjEfjoIrJvmh6SPUif7wLCIM0bnpUNSJcsX0fuOslTY+rNsRvioEfJg6bHlhtKCeqhcFt1vTIakK00A0Mgs3PYNT4yWVgMCmbHlwtKG6cFgbjn2Bi/uI2MAimP4BPRw6a+SSbUdPj+zaGWzRpMMd/P3Q9D096aNBb9msGX1h3PXuLnsGe/lAwz6zbESN+BWvufod4jh5p04P8FgpcdbvjoouW8MVFlyNGuEeW+czSQpzExw5HDEpI/5gS9lXDO4jy4HDHDKvFXVcjRjJ1UUr+Lgmoixjdgh2zCmlmA/io300+zR9woqqhPXnE6c07STbFGozA9IyW6DJqapTfQIjZGdfzQ5zEpw7KUimacE9+SKHypntkQ9LFQSQu5MQvXYsYTCUyM4uRiCZdKxQpHOyVAoKCybZbESPfwejnWhHICUG3BOIRpmUrlSmHuJXx3KWIkWJq/exYYxEm5vp7aCWSGP3PJaiFm9O+3E5QiTt27k9QgazxUStBMoUnDiQocky6shJJatp4YjnNtswLWon8C6srSXDFcm7XThBDvnoHTYJxJyTwFKPcqboow/fRAQmcRe5Z4Xc82rjpgAQ+QpE7CAY9fwwoMINtvQQeKz0JG2/tx5v8bU/As7m08CPj9OVjJVaSi3YHRcd26OTJ13bRLQk8fRetQUfsPZ6aoqLTdgk8LvqqicvMPTVdk8DTVO0umSfOxUiCxl37w375prVfTJ6cNEmCRgck8DjbKCYGLy6aTO7xwS5I4GHIkf83Zi7/66QEPtopbSYHV1JW4nPdkMDz9FaauHSYyBJ4+9PTI4q9NPHZMXZKhnxlc5uQytbg4FY3kRLazkjgsSg1nCbSk+PWRYyhg+CVFEc3se0SeP48dSTX5YMwUV+LLIG3y0+HH/Fs7DhDEd6LsLFQTWyzBP5vTjLZZOqg4lAUjWNtgr4i0l0b2Wfkm7+qyUgyGrCJe00ZJaG1RRJ4petimarDKgSlPijPcU9fe3I3qO82aiFYiIrqUfFolsDbciCDuy5yLR8RJk5S+SZ406otEjh1XXwU6RqPCBMHCpPQxmNLjpwoB0YWI+XlF0t66qCsMxI0WiGBc9fFEet7hUgE3ezkQ9QAcNeGiJGJSHDEuxIOCn5U2RxmCbz59JRe+n/YKmsowi6hYC6fYZdo3sJM10cDtdhNYkrglKXIEnjTm6ahro4ecRMJJ8z5JKKSfBI1Ny2B524DP/hGamYpObWydd8uCTziCEDj74kpirBG0mS1okUSuOP4a8XEezE8JtQH8RK4ubjJQpH786RkMblnA5IU2Ubx06w1ErjYoVbENemodFJIaTFhCTxujGxGoihXxLW7kMdXbvEJyZZtkcBTHOlRWIlLkeKsxfio0lXkXzps89qMoMGlzqc4VuD7D5QigmU1Kf+2owvc1Z83wngW/C416Fsp5ClkU7RAAo+dXXel2MyfMZmQn8oO6DZI4J7+vFRIpCuag9MbhnT41N3BeTFQpEDpT5rIhE/9bAthAPdWXf9Yu78/T5go+JJqEqnhpw1L4Kf681I8fydvT6C6cimLpGYlcPahRAZt3snnpUgZn/TCZiVw4oHFL+WRLVrIIYGKebkSG5XARX/eUhHXWFvjhjWKpzL5ZAn8mtW+7M9bT2VMpqjNfkqermyJNtcFniv788FKjJBVGS70KL+WiU1zEji1hnziRbzinJyZwjYZoPTONiaBxyutizTYi1ngOokIEydxrYy/MQk8zjbarTOzU3UShW1aiVLPaFICD1lR0k3kOonCNlKJdngta1ACH04VOX/PUY3qJEreKCYqPsgS+FW3hZNCaUAUmy3kpyQN4va31qcfNSqBh4nsI33iOgkngc5TxLDOlG0MIYG/XTk9LcRqnHCpR1GPzmzjkRlNwQ8blsAjUc+LOimCjymBxhpFbfWiY+1Xl8BTUj/lfhKpShgTkGzVS05IAp9cXZXKRcsTx2UM2wN8ARFwjdo52/ix9rhHJk5oCCR44GLDHFd1UxZ1ZDF6acRTMpEVhwxWElWCcAXIXNUqrieBJ8NSXeYxNytQ/kXVOrkp+KAuOH3p0OY38OEtg/dCszEk4YnrJNwRRHkXzdcP513rWPtxxd9tCoUNStK5iQ1wL5y4BmqxWz1nuY4E/ufsznqlZci0dUiaBFaUKB0im+qiIUvgl1mJ/0XeZSmnMcJKjugEGyz64Io4wSt9jV1DAq8G7slKOBPLRkgZ+CkyJgaDrV49XEMCR0fri4GUmKJSEYDaFbopXIRy63DAyx9rH2JMepZuQufOkQzQFZExh9U62JmUZReWwM84XUYX6SGdopchm2K8cHUIXfpY+zknBFFxoC2/EZSSYCFm33tXJLisBH5WiwuRDVaC6Kbv4GPggAtXYn1ZCfy8Gg0nGjkD3fwAZpTVUHDjjHWXlMDPrLNp45uq+Spjohnhtvpt7gVGTXR1SuAkcjvbBTNYKsiYeP4ZLIyBo9wDJwl8UF/EcN60ykC+8zEmpi4wOS/uOEA9fe91RQyOFJ4aG7ukMGbCLgVmDEA1jqzm+CPoZte6IgbftOqhacwLkE0hdVmC9dBItfTknKOLSOB0H4A31CLXLNyMOQcPHlbX6MBTOFymCxyrG23/pAJgzDVQAUZE/KjK1d5+UqIEmR7/BSirP5HyImOCl6IvAGPiFpO3+MObXWvprqVYeKJsiYFNMTNInB+h83l/BamvdcREyPxPJxKwzYDZNxAt+hfo4v6yAdMrZxb7BUTVKH5aPhhVC0GsseAnYd4G4cITEHvs7IcauAZI/nTLNUw5MWaVTMn46sScuAwrOze0nAuw8LTIhcsWiCCt8iDGBOBrT8g/Plt9UXVYGFXdbvArDf0oQRUDHoBwsf5V/S441kaex78AuL2OY6YlZDTzbf8Uqo9DgzZkppNZ9Xtm1SVK80K/cQyJYR0BMdVaEs7FDizkfkUHnoGvxQlVgD//OA/aHXNnA8icD1q4gLp35H22Fmm4cJ6/Ow1wIvW0qQIkocL3qNKW+hfwHcA7BQj5XIWdZ+HI92hNdxH5/9ctL2DHk9uHXLg528K6LsiO5e0kF7Xw/Dms7UCU2uHVAgtrbOSTdz60wcJNnRtQ2bYxCzPXY7t6JeFy9Vcx43IWDqZ1N/HFxV5tm72AhcilakPy4EG7l+K7yEePs+Xg5iuYz4ALpjeDc4ACVjKnH3q72Pe8l9p+A0k4jL4GIruyjI5//H9RDSp+6LALF0caDAaDwWAwGAwGg8FgMBgMBoPBYDAYDAaDwWAwGAwGg8FgMBgMBoPB8FPxD0imjHsfcdg4AAAAAElFTkSuQmCC;fontSize=8;" vertex="1" parent="1">
          <mxGeometry x="460" y="300" width="35" height="35" as="geometry" />
        </mxCell>
      </root>
    </mxGraphModel>
  </diagram>
</mxfile>
